# Created by Kenney (www.kenney.nl)

mtllib ShotGun.mtl

v 7 2 -0.5
v 7 2.5 -0.5
v 6 2 -0.5
v 6.870591 2.517037 -0.5
v 6.75 2.566987 -0.5
v 6 3 -0.5
v 6.646447 2.646447 -0.5
v 6.566988 2.75 -0.5
v 6.517037 2.87059 -0.5
v 6.5 3 -0.5
v 7 2.5 0.5
v 6.870591 2.517037 0.5
v 6.75 2.566987 0.5
v 6.646447 2.646447 0.5
v 6.566988 2.75 0.5
v 6.5 3 0.5
v 7 2 0.5
v 6 2 0.5
v 6 3 0.5
v 6.517037 2.87059 0.5
v 6 2.5 -0.5
v 5 2 -0.5
v 5.870591 2.517037 -0.5
v 5.75 2.566987 -0.5
v 5 3 -0.5
v 5.646447 2.646447 -0.5
v 5.566988 2.75 -0.5
v 5.517037 2.87059 -0.5
v 5.5 3 -0.5
v 6 2.5 0.5
v 5.870591 2.517037 0.5
v 5.75 2.566987 0.5
v 5.646447 2.646447 0.5
v 5.566988 2.75 0.5
v 5.5 3 0.5
v 5 2 0.5
v 5 3 0.5
v 5.517037 2.87059 0.5
v 5 2.5 -0.5
v 4 2 -0.5
v 4.870591 2.517037 -0.5
v 4.75 2.566987 -0.5
v 4 3 -0.5
v 4.646447 2.646447 -0.5
v 4.566988 2.75 -0.5
v 4.517037 2.87059 -0.5
v 4.5 3 -0.5
v 5 2.5 0.5
v 4.870591 2.517037 0.5
v 4.75 2.566987 0.5
v 4.646447 2.646447 0.5
v 4.566988 2.75 0.5
v 4.5 3 0.5
v 4 2 0.5
v 4 3 0.5
v 4.517037 2.87059 0.5
v 4 2.5 -0.5
v 3 2 -0.5
v 3.87059 2.517037 -0.5
v 3.75 2.566987 -0.5
v 3 3 -0.5
v 3.646447 2.646447 -0.5
v 3.566987 2.75 -0.5
v 3.517037 2.87059 -0.5
v 3.5 3 -0.5
v 4 2.5 0.5
v 3.87059 2.517037 0.5
v 3.75 2.566987 0.5
v 3.646447 2.646447 0.5
v 3.566987 2.75 0.5
v 3.5 3 0.5
v 3 2 0.5
v 3 3 0.5
v 3.517037 2.87059 0.5
v 3 2.5 -0.5
v 2 2 -0.5
v 2.87059 2.517037 -0.5
v 2.75 2.566987 -0.5
v 2 3 -0.5
v 2.646447 2.646447 -0.5
v 2.566987 2.75 -0.5
v 2.517037 2.87059 -0.5
v 2.5 3 -0.5
v 3 2.5 0.5
v 2.87059 2.517037 0.5
v 2.75 2.566987 0.5
v 2.646447 2.646447 0.5
v 2.566987 2.75 0.5
v 2.5 3 0.5
v 2 2 0.5
v 2 3 0.5
v 2.517037 2.87059 0.5
v 0.5 3 0.5
v 1 3 0.5
v 0 2.5 0.5
v 1 2 0.5
v 0 2 0.5
v 0.5 3 -0.5
v 0 2.5 -0.5
v 1 3 -0.5
v 0 2 -0.5
v 1 2 -0.5
v -1 0 0.25
v -1.034074 0.258819 0.25
v -1 1 0.25
v -1.133975 0.5 0.25
v -1.292893 0.7071068 0.25
v -1.5 0.8660254 0.25
v -1.741181 0.9659258 0.25
v -2 1 0.25
v -1 0 -0.25
v -1 1 -0.25
v -1.034074 0.258819 -0.25
v -1.133975 0.5 -0.25
v -1.292893 0.7071068 -0.25
v -1.5 0.8660254 -0.25
v -1.741181 0.9659258 -0.25
v -2 1 -0.25
v -2.75 2.566987 -0.5
v -2.87059 2.517037 -0.5
v -2 2 -0.5
v -3 2 -0.5
v -3 2.5 -0.5
v -2 3 -0.5
v -2.646447 2.646447 -0.5
v -2.566987 2.75 -0.5
v -2.517037 2.87059 -0.5
v -2.5 3 -0.5
v -3 2.5 0.5
v -2.87059 2.517037 0.5
v -3 2 0.5
v -2.75 2.566987 0.5
v -2.646447 2.646447 0.5
v -2 3 0.5
v -2 2 0.5
v -2.566987 2.75 0.5
v -2.517037 2.87059 0.5
v -2.5 3 0.5
v -3 0 0.25
v -3 1 0.25
v -3 0 -0.25
v -3 1 -0.25
v -4 1 0.25
v -3 2 0.25
v -4 1 -0.25
v -3 2 -0.25
v -5 1 -0.5
v -5 2 -0.5
v -5 1 0.5
v -5 2 0.5
v -4 1 -0.5
v -4 1 0.5
v 2 1 0.5
v 2 1 -0.5
v 1 1 0.5
v 1 1 -0.5
v 0 2 0.25
v 0 2 -0.25
v -1 2 0.25
v -1 2 -0.25
v -1 3 -0.25
v -1 3 0.25
v 0 3 -0.25
v 0 3 0.25
v -1 1 0.5
v -1 1 -0.5
v -2 1 0.5
v -2 1 -0.5
v -1 3 -0.5
v -1 3 0.5
v 7 1 0.5
v 7 1 -0.5
v -1 2 -0.5
v -1 2 0.5
v -2 2 -0.25
v -2 2 0.25
v -5 0 0.5
v -5 0 -0.5
v -8 0 0.5
v -8 0 -0.5
v -8 2 -0.5
v -8 2 0.5
v -4 0 0.25
v -4 0 -0.25
v -4 0 0.5
v -4 0 -0.5

vn 0 0 -1
vn 0.1305262 0.9914449 0
vn 0.2588191 0.9659258 0
vn 0.5 0.8660254 0
vn 0.7071068 0.7071068 0
vn 0.8660254 0.5 0
vn 0.9914449 0.1305262 0
vn 0.9659258 0.258819 0
vn 0 0 1
vn -1 0 0
vn 0 -1 0
vn 1 0 0
vn 0 1 0
vn -0.7071068 0.7071068 0
vn -0.9914449 -0.1305262 0
vn -0.9659259 -0.2588191 0
vn -0.2588191 -0.9659259 0
vn -0.1305262 -0.9914449 0
vn -0.5 -0.8660254 0
vn -0.7071068 -0.7071068 0
vn -0.8660254 -0.5 0
vn -0.8660254 0.5 0
vn -0.9659258 0.258819 0
vn -0.5 0.8660254 0
vn -0.258819 0.9659258 0
vn -0.1305262 0.9914449 0
vn -0.9914449 0.1305262 0
vn 0.7071068 -0.7071068 0
vn -0.7071068 0.7071068 0

vt 0.015625 0.65625
vt 0.015625 0.6640625
vt 0.03125 0.65625
vt 0.01764702 0.6643287
vt 0.01953125 0.6651092
vt 0.03125 0.671875
vt 0.02114927 0.6663507
vt 0.02239082 0.6679688
vt 0.0231713 0.669853
vt 0.0234375 0.671875
vt 0.265625 0.8671875
vt 0.265625 0.8984375
vt 0.267647 0.8671875
vt 0.267647 0.8984375
vt 0.2695313 0.8671875
vt 0.2695313 0.8984375
vt 0.2711493 0.8671875
vt 0.8984375 0.6663507
vt 0.8984375 0.6679688
vt 0.8671875 0.6663507
vt 0.2711493 0.8984375
vt 0.8671875 0.671875
vt 0.8671875 0.669853
vt 0.8984375 0.671875
vt 0.734375 0.65625
vt 0.71875 0.65625
vt 0.734375 0.6640625
vt 0.732353 0.6643287
vt 0.7304688 0.6651092
vt 0.71875 0.671875
vt 0.7288507 0.6663507
vt 0.7276092 0.6679688
vt 0.7268287 0.669853
vt 0.7265625 0.671875
vt 0.3671875 0.65625
vt 0.3671875 0.671875
vt 0.3984375 0.65625
vt 0.3984375 0.671875
vt 0.265625 0.3984375
vt 0.265625 0.3671875
vt 0.28125 0.3984375
vt 0.28125 0.3671875
vt 0.8671875 0.65625
vt 0.8984375 0.65625
vt 0.8671875 0.6640625
vt 0.8984375 0.6640625
vt 0.2734375 0.8671875
vt 0.2734375 0.8984375
vt 0.28125 0.8671875
vt 0.28125 0.8984375
vt 0.8671875 0.6679688
vt 0.8984375 0.669853
vt 0.03125 0.6640625
vt 0.046875 0.65625
vt 0.03327202 0.6643287
vt 0.03515625 0.6651092
vt 0.046875 0.671875
vt 0.03677427 0.6663507
vt 0.03801582 0.6679688
vt 0.0387963 0.669853
vt 0.0390625 0.671875
vt 0.283272 0.8671875
vt 0.283272 0.8984375
vt 0.2851563 0.8671875
vt 0.2851563 0.8984375
vt 0.2867743 0.8671875
vt 0.2867743 0.8984375
vt 0.703125 0.65625
vt 0.71875 0.6640625
vt 0.716728 0.6643287
vt 0.7148438 0.6651092
vt 0.703125 0.671875
vt 0.7132257 0.6663507
vt 0.7119842 0.6679688
vt 0.7112037 0.669853
vt 0.7109375 0.671875
vt 0.296875 0.3984375
vt 0.296875 0.3671875
vt 0.2890625 0.8671875
vt 0.2890625 0.8984375
vt 0.296875 0.8671875
vt 0.296875 0.8984375
vt 0.046875 0.6640625
vt 0.0625 0.65625
vt 0.04889702 0.6643287
vt 0.05078125 0.6651092
vt 0.0625 0.671875
vt 0.05239927 0.6663507
vt 0.05364082 0.6679688
vt 0.0544213 0.669853
vt 0.0546875 0.671875
vt 0.298897 0.8671875
vt 0.298897 0.8984375
vt 0.3007813 0.8671875
vt 0.3007813 0.8984375
vt 0.3023993 0.8671875
vt 0.3023993 0.8984375
vt 0.6875 0.65625
vt 0.703125 0.6640625
vt 0.701103 0.6643287
vt 0.6992188 0.6651092
vt 0.6875 0.671875
vt 0.6976007 0.6663507
vt 0.6963592 0.6679688
vt 0.6955787 0.669853
vt 0.6953125 0.671875
vt 0.3125 0.3984375
vt 0.3125 0.3671875
vt 0.3046875 0.8671875
vt 0.3046875 0.8984375
vt 0.3125 0.8671875
vt 0.3125 0.8984375
vt 0.0625 0.6640625
vt 0.078125 0.65625
vt 0.06452203 0.6643287
vt 0.06640625 0.6651092
vt 0.078125 0.671875
vt 0.06802427 0.6663507
vt 0.06926583 0.6679688
vt 0.07004629 0.669853
vt 0.0703125 0.671875
vt 0.314522 0.8671875
vt 0.314522 0.8984375
vt 0.3164063 0.8671875
vt 0.3164063 0.8984375
vt 0.3180243 0.8671875
vt 0.3180243 0.8984375
vt 0.671875 0.65625
vt 0.6875 0.6640625
vt 0.685478 0.6643287
vt 0.6835938 0.6651092
vt 0.671875 0.671875
vt 0.6819757 0.6663507
vt 0.6807342 0.6679688
vt 0.6799537 0.669853
vt 0.6796875 0.671875
vt 0.328125 0.3984375
vt 0.328125 0.3671875
vt 0.3203125 0.8671875
vt 0.3203125 0.8984375
vt 0.328125 0.8671875
vt 0.328125 0.8984375
vt 0.078125 0.6640625
vt 0.09375 0.65625
vt 0.08014703 0.6643287
vt 0.08203125 0.6651092
vt 0.09375 0.671875
vt 0.08364927 0.6663507
vt 0.08489083 0.6679688
vt 0.08567129 0.669853
vt 0.0859375 0.671875
vt 0.330147 0.8671875
vt 0.330147 0.8984375
vt 0.3320313 0.8671875
vt 0.3320313 0.8984375
vt 0.3336493 0.8671875
vt 0.3336493 0.8984375
vt 0.65625 0.65625
vt 0.671875 0.6640625
vt 0.669853 0.6643287
vt 0.6679688 0.6651092
vt 0.65625 0.671875
vt 0.6663507 0.6663507
vt 0.6651092 0.6679688
vt 0.6643287 0.669853
vt 0.6640625 0.671875
vt 0.34375 0.3984375
vt 0.34375 0.3671875
vt 0.3359375 0.8671875
vt 0.3359375 0.8984375
vt 0.34375 0.8671875
vt 0.34375 0.8984375
vt 0.6328125 0.671875
vt 0.640625 0.671875
vt 0.625 0.6640625
vt 0.640625 0.65625
vt 0.625 0.65625
vt 0.1171875 0.671875
vt 0.125 0.6640625
vt 0.109375 0.671875
vt 0.125 0.65625
vt 0.109375 0.65625
vt 0.359375 0.3984375
vt 0.359375 0.3671875
vt 0.375 0.3984375
vt 0.375 0.3671875
vt 0.359375 0.8671875
vt 0.359375 0.8984375
vt 0.3671875 0.8671875
vt 0.3671875 0.8984375
vt 0.3671875 0.6640625
vt 0.3984375 0.6640625
vt 0.375 0.8671875
vt 0.375 0.8984375
vt 0.609375 0.625
vt 0.6088426 0.6290441
vt 0.609375 0.640625
vt 0.6072816 0.6328125
vt 0.6047986 0.6360486
vt 0.6015625 0.6385316
vt 0.5977941 0.6400926
vt 0.59375 0.640625
vt 0.140625 0.625
vt 0.140625 0.640625
vt 0.1411574 0.6290441
vt 0.1427183 0.6328125
vt 0.1452015 0.6360486
vt 0.1484375 0.6385316
vt 0.1522059 0.6400926
vt 0.15625 0.640625
vt 0.875 0.640625
vt 0.875 0.625
vt 0.890625 0.640625
vt 0.890625 0.625
vt 0.390625 0.875
vt 0.390625 0.890625
vt 0.40625 0.875
vt 0.40625 0.890625
vt 0.375 0.625
vt 0.375 0.6290441
vt 0.390625 0.625
vt 0.4022059 0.390625
vt 0.4022059 0.375
vt 0.40625 0.390625
vt 0.3984375 0.390625
vt 0.3984375 0.375
vt 0.3952014 0.390625
vt 0.3952014 0.375
vt 0.390625 0.6360486
vt 0.390625 0.6328125
vt 0.375 0.6360486
vt 0.40625 0.375
vt 0.375 0.6328125
vt 0.390625 0.6290441
vt 0.1679688 0.6651092
vt 0.169853 0.6643287
vt 0.15625 0.65625
vt 0.171875 0.65625
vt 0.171875 0.6640625
vt 0.15625 0.671875
vt 0.1663507 0.6663507
vt 0.1651092 0.6679688
vt 0.1643287 0.669853
vt 0.1640625 0.671875
vt 0.578125 0.6640625
vt 0.580147 0.6643287
vt 0.578125 0.65625
vt 0.5820313 0.6651092
vt 0.5836493 0.6663507
vt 0.59375 0.671875
vt 0.59375 0.65625
vt 0.5848908 0.6679688
vt 0.5856713 0.669853
vt 0.5859375 0.671875
vt 0.3671875 0.6679688
vt 0.3671875 0.669853
vt 0.3984375 0.6679688
vt 0.3984375 0.669853
vt 0.3671875 0.6663507
vt 0.3984375 0.6663507
vt 0.4163507 0.8671875
vt 0.4163507 0.8984375
vt 0.4179688 0.8671875
vt 0.4179688 0.8984375
vt 0.419853 0.8671875
vt 0.419853 0.8984375
vt 0.421875 0.8671875
vt 0.421875 0.8984375
vt 0.40625 0.3984375
vt 0.40625 0.3671875
vt 0.421875 0.3984375
vt 0.421875 0.3671875
vt 0.40625 0.8671875
vt 0.40625 0.8984375
vt 0.4140625 0.8671875
vt 0.4140625 0.8984375
vt 0.578125 0.625
vt 0.578125 0.640625
vt 0.421875 0.390625
vt 0.421875 0.375
vt 0.421875 0.875
vt 0.421875 0.890625
vt 0.375 0.640625
vt 0.390625 0.640625
vt 0.171875 0.625
vt 0.171875 0.640625
vt 0.5625 0.640625
vt 0.1875 0.640625
vt 0.4375 0.390625
vt 0.4375 0.375
vt 0.875 0.65625
vt 0.890625 0.65625
vt 0.4375 0.875
vt 0.4375 0.890625
vt 0.3671875 0.640625
vt 0.3984375 0.640625
vt 0.203125 0.640625
vt 0.203125 0.65625
vt 0.4375 0.8671875
vt 0.4375 0.8984375
vt 0.453125 0.8671875
vt 0.453125 0.8984375
vt 0.546875 0.640625
vt 0.546875 0.65625
vt 0.4375 0.3984375
vt 0.4375 0.3671875
vt 0.453125 0.3984375
vt 0.453125 0.3671875
vt 0.109375 0.640625
vt 0.09375 0.640625
vt 0.65625 0.640625
vt 0.640625 0.640625
vt 0.8671875 0.640625
vt 0.8984375 0.640625
vt 0.375 0.390625
vt 0.375 0.375
vt 0.390625 0.390625
vt 0.390625 0.375
vt 0.375 0.65625
vt 0.375 0.671875
vt 0.390625 0.65625
vt 0.390625 0.671875
vt 0.140625 0.65625
vt 0.140625 0.671875
vt 0.125 0.671875
vt 0.609375 0.65625
vt 0.625 0.671875
vt 0.609375 0.671875
vt 0.875 0.671875
vt 0.890625 0.671875
vt 0.375 0.875
vt 0.375 0.890625
vt 0.390625 0.3984375
vt 0.390625 0.3671875
vt 0.390625 0.8671875
vt 0.390625 0.8984375
vt 0.015625 0.640625
vt 0.734375 0.640625
vt 0.5 0.3984375
vt 0.5 0.3671875
vt 0.3671875 0.625
vt 0.3984375 0.625
vt 0.25 0.625
vt 0.203125 0.625
vt 0.25 0.65625
vt 0.546875 0.625
vt 0.5 0.625
vt 0.5 0.65625
vt 0.8671875 0.625
vt 0.8984375 0.625
vt 0.5 0.8671875
vt 0.5 0.8984375
vt 0.1875 0.625
vt 0.5625 0.625

usemtl ShotGun

f 3/3/1 2/2/1 1/1/1
f 2/2/1 3/3/1 4/4/1
f 4/4/1 3/3/1 5/5/1
f 5/5/1 3/3/1 6/6/1
f 5/5/1 6/6/1 7/7/1
f 7/7/1 6/6/1 8/8/1
f 8/8/1 6/6/1 9/9/1
f 9/9/1 6/6/1 10/10/1
f 4/13/3 11/12/2 2/11/2
f 5/15/4 12/14/3 4/13/3
f 7/17/5 13/16/4 5/15/4
f 7/20/5 15/19/6 14/18/5
f 13/16/4 7/17/5 14/21/5
f 12/14/3 5/15/4 13/16/4
f 11/12/2 4/13/3 12/14/3
f 16/24/7 9/23/8 10/22/7
f 11/27/9 18/26/9 17/25/9
f 18/26/9 11/27/9 12/28/9
f 18/26/9 12/28/9 13/29/9
f 18/26/9 13/29/9 19/30/9
f 19/30/9 13/29/9 14/31/9
f 19/30/9 14/31/9 15/32/9
f 19/30/9 15/32/9 20/33/9
f 19/30/9 20/33/9 16/34/9
f 18/37/10 6/36/10 3/35/10
f 6/36/10 18/37/10 19/38/10
f 18/41/11 1/40/11 17/39/11
f 1/40/11 18/41/11 3/42/11
f 2/45/12 17/44/12 1/43/12
f 17/44/12 2/45/12 11/46/12
f 6/49/13 16/48/13 10/47/13
f 16/48/13 6/49/13 19/50/13
f 20/52/8 8/51/6 9/23/8
f 9/23/8 16/24/7 20/52/8
f 8/51/6 20/52/8 15/19/6
f 15/19/6 7/20/5 8/51/6
f 22/54/1 21/53/1 3/3/1
f 21/53/1 22/54/1 23/55/1
f 23/55/1 22/54/1 24/56/1
f 24/56/1 22/54/1 25/57/1
f 24/56/1 25/57/1 26/58/1
f 26/58/1 25/57/1 27/59/1
f 27/59/1 25/57/1 28/60/1
f 28/60/1 25/57/1 29/61/1
f 23/62/3 30/50/2 21/49/2
f 24/64/4 31/63/3 23/62/3
f 26/66/5 32/65/4 24/64/4
f 26/20/5 34/19/6 33/18/5
f 32/65/4 26/66/5 33/67/5
f 31/63/3 24/64/4 32/65/4
f 30/50/2 23/62/3 31/63/3
f 35/24/7 28/23/8 29/22/7
f 30/69/9 36/68/9 18/26/9
f 36/68/9 30/69/9 31/70/9
f 36/68/9 31/70/9 32/71/9
f 36/68/9 32/71/9 37/72/9
f 37/72/9 32/71/9 33/73/9
f 37/72/9 33/73/9 34/74/9
f 37/72/9 34/74/9 38/75/9
f 37/72/9 38/75/9 35/76/9
f 36/37/10 25/36/10 22/35/10
f 25/36/10 36/37/10 37/38/10
f 36/77/11 3/42/11 18/41/11
f 3/42/11 36/77/11 22/78/11
f 21/45/12 18/44/12 3/43/12
f 18/44/12 21/45/12 30/46/12
f 25/81/13 35/80/13 29/79/13
f 35/80/13 25/81/13 37/82/13
f 38/52/8 27/51/6 28/23/8
f 28/23/8 35/24/7 38/52/8
f 27/51/6 38/52/8 34/19/6
f 34/19/6 26/20/5 27/51/6
f 40/84/1 39/83/1 22/54/1
f 39/83/1 40/84/1 41/85/1
f 41/85/1 40/84/1 42/86/1
f 42/86/1 40/84/1 43/87/1
f 42/86/1 43/87/1 44/88/1
f 44/88/1 43/87/1 45/89/1
f 45/89/1 43/87/1 46/90/1
f 46/90/1 43/87/1 47/91/1
f 41/92/3 48/82/2 39/81/2
f 42/94/4 49/93/3 41/92/3
f 44/96/5 50/95/4 42/94/4
f 44/20/5 52/19/6 51/18/5
f 50/95/4 44/96/5 51/97/5
f 49/93/3 42/94/4 50/95/4
f 48/82/2 41/92/3 49/93/3
f 53/24/7 46/23/8 47/22/7
f 48/99/9 54/98/9 36/68/9
f 54/98/9 48/99/9 49/100/9
f 54/98/9 49/100/9 50/101/9
f 54/98/9 50/101/9 55/102/9
f 55/102/9 50/101/9 51/103/9
f 55/102/9 51/103/9 52/104/9
f 55/102/9 52/104/9 56/105/9
f 55/102/9 56/105/9 53/106/9
f 54/37/10 43/36/10 40/35/10
f 43/36/10 54/37/10 55/38/10
f 54/107/11 22/78/11 36/77/11
f 22/78/11 54/107/11 40/108/11
f 39/45/12 36/44/12 22/43/12
f 36/44/12 39/45/12 48/46/12
f 43/111/13 53/110/13 47/109/13
f 53/110/13 43/111/13 55/112/13
f 56/52/8 45/51/6 46/23/8
f 46/23/8 53/24/7 56/52/8
f 45/51/6 56/52/8 52/19/6
f 52/19/6 44/20/5 45/51/6
f 58/114/1 57/113/1 40/84/1
f 57/113/1 58/114/1 59/115/1
f 59/115/1 58/114/1 60/116/1
f 60/116/1 58/114/1 61/117/1
f 60/116/1 61/117/1 62/118/1
f 62/118/1 61/117/1 63/119/1
f 63/119/1 61/117/1 64/120/1
f 64/120/1 61/117/1 65/121/1
f 59/122/3 66/112/2 57/111/2
f 60/124/4 67/123/3 59/122/3
f 62/126/5 68/125/4 60/124/4
f 62/20/5 70/19/6 69/18/5
f 68/125/4 62/126/5 69/127/5
f 67/123/3 60/124/4 68/125/4
f 66/112/2 59/122/3 67/123/3
f 71/24/7 64/23/8 65/22/7
f 66/129/9 72/128/9 54/98/9
f 72/128/9 66/129/9 67/130/9
f 72/128/9 67/130/9 68/131/9
f 72/128/9 68/131/9 73/132/9
f 73/132/9 68/131/9 69/133/9
f 73/132/9 69/133/9 70/134/9
f 73/132/9 70/134/9 74/135/9
f 73/132/9 74/135/9 71/136/9
f 72/37/10 61/36/10 58/35/10
f 61/36/10 72/37/10 73/38/10
f 72/137/11 40/108/11 54/107/11
f 40/108/11 72/137/11 58/138/11
f 57/45/12 54/44/12 40/43/12
f 54/44/12 57/45/12 66/46/12
f 61/141/13 71/140/13 65/139/13
f 71/140/13 61/141/13 73/142/13
f 74/52/8 63/51/6 64/23/8
f 64/23/8 71/24/7 74/52/8
f 63/51/6 74/52/8 70/19/6
f 70/19/6 62/20/5 63/51/6
f 76/144/1 75/143/1 58/114/1
f 75/143/1 76/144/1 77/145/1
f 77/145/1 76/144/1 78/146/1
f 78/146/1 76/144/1 79/147/1
f 78/146/1 79/147/1 80/148/1
f 80/148/1 79/147/1 81/149/1
f 81/149/1 79/147/1 82/150/1
f 82/150/1 79/147/1 83/151/1
f 77/152/3 84/142/2 75/141/2
f 78/154/4 85/153/3 77/152/3
f 80/156/5 86/155/4 78/154/4
f 80/20/5 88/19/6 87/18/5
f 86/155/4 80/156/5 87/157/5
f 85/153/3 78/154/4 86/155/4
f 84/142/2 77/152/3 85/153/3
f 89/24/7 82/23/8 83/22/7
f 84/159/9 90/158/9 72/128/9
f 90/158/9 84/159/9 85/160/9
f 90/158/9 85/160/9 86/161/9
f 90/158/9 86/161/9 91/162/9
f 91/162/9 86/161/9 87/163/9
f 91/162/9 87/163/9 88/164/9
f 91/162/9 88/164/9 92/165/9
f 91/162/9 92/165/9 89/166/9
f 90/37/10 79/36/10 76/35/10
f 79/36/10 90/37/10 91/38/10
f 90/167/11 58/138/11 72/137/11
f 58/138/11 90/167/11 76/168/11
f 75/45/12 72/44/12 58/43/12
f 72/44/12 75/45/12 84/46/12
f 79/171/13 89/170/13 83/169/13
f 89/170/13 79/171/13 91/172/13
f 92/52/8 81/51/6 82/23/8
f 82/23/8 89/24/7 92/52/8
f 81/51/6 92/52/8 88/19/6
f 88/19/6 80/20/5 81/51/6
f 95/175/9 94/174/9 93/173/9
f 94/174/9 97/177/9 96/176/9
f 97/177/9 94/174/9 95/175/9
f 100/180/1 99/179/1 98/178/1
f 99/179/1 102/182/1 101/181/1
f 102/182/1 99/179/1 100/180/1
f 97/185/11 102/184/11 96/183/11
f 102/184/11 97/185/11 101/186/11
f 94/24/12 102/43/12 100/22/12
f 102/43/12 94/24/12 96/44/12
f 98/189/13 94/188/13 100/187/13
f 94/188/13 98/189/13 93/190/13
f 97/37/10 99/191/10 101/35/10
f 99/191/10 97/37/10 95/192/10
f 95/194/14 98/189/14 99/193/14
f 98/189/14 95/194/14 93/190/14
f 105/197/9 104/196/9 103/195/9
f 104/196/9 105/197/9 106/198/9
f 106/198/9 105/197/9 107/199/9
f 107/199/9 105/197/9 108/200/9
f 108/200/9 105/197/9 109/201/9
f 109/201/9 105/197/9 110/202/9
f 113/205/1 112/204/1 111/203/1
f 112/204/1 113/205/1 114/206/1
f 112/204/1 114/206/1 115/207/1
f 112/204/1 115/207/1 116/208/1
f 112/204/1 116/208/1 117/209/1
f 112/204/1 117/209/1 118/210/1
f 105/213/12 111/212/12 112/211/12
f 111/212/12 105/213/12 103/214/12
f 118/217/13 105/216/13 112/215/13
f 105/216/13 118/217/13 110/218/13
f 103/221/15 113/220/16 111/219/15
f 110/224/18 117/223/17 109/222/17
f 109/222/17 116/226/19 108/225/19
f 108/225/19 115/228/20 107/227/20
f 115/231/20 106/230/21 107/229/20
f 115/228/20 108/225/19 116/226/19
f 116/226/19 109/222/17 117/223/17
f 117/223/17 110/224/18 118/232/18
f 106/230/21 115/231/20 114/233/21
f 114/233/21 104/234/16 106/230/21
f 113/220/16 103/221/15 104/234/16
f 104/234/16 114/233/21 113/220/16
f 121/237/1 120/236/1 119/235/1
f 123/239/1 121/237/1 122/238/1
f 121/237/1 123/239/1 120/236/1
f 121/237/1 119/235/1 124/240/1
f 124/240/1 119/235/1 125/241/1
f 124/240/1 125/241/1 126/242/1
f 124/240/1 126/242/1 127/243/1
f 124/240/1 127/243/1 128/244/1
f 131/247/9 130/246/9 129/245/9
f 131/247/9 132/248/9 130/246/9
f 132/248/9 134/250/9 133/249/9
f 134/250/9 131/247/9 135/251/9
f 131/247/9 134/250/9 132/248/9
f 133/249/9 134/250/9 136/252/9
f 136/252/9 134/250/9 137/253/9
f 137/253/9 134/250/9 138/254/9
f 136/257/22 127/256/23 126/255/22
f 127/256/23 136/257/22 137/258/23
f 133/260/14 126/255/22 125/259/14
f 126/255/22 133/260/14 136/257/22
f 119/263/24 133/262/14 125/261/14
f 133/262/14 119/263/24 132/264/24
f 123/267/26 130/266/25 120/265/25
f 130/266/25 123/267/26 129/268/26
f 120/265/25 132/264/24 119/263/24
f 132/264/24 120/265/25 130/266/25
f 137/258/23 128/36/27 127/256/23
f 128/36/27 137/258/23 138/38/27
f 131/271/11 121/270/11 135/269/11
f 121/270/11 131/271/11 122/272/11
f 134/24/12 121/43/12 124/22/12
f 121/43/12 134/24/12 135/44/12
f 128/275/13 134/274/13 124/273/13
f 134/274/13 128/275/13 138/276/13
f 131/37/10 123/191/10 122/35/10
f 123/191/10 131/37/10 129/192/10
f 140/278/9 139/277/9 110/202/9
f 139/279/28 118/232/28 110/224/28
f 118/232/28 139/279/28 141/280/28
f 142/281/13 110/218/13 118/217/13
f 110/218/13 142/281/13 140/282/13
f 139/221/10 142/283/10 141/219/10
f 142/283/10 139/221/10 140/284/10
f 142/286/1 118/210/1 141/285/1
f 144/247/9 143/287/9 140/278/9
f 146/238/1 142/286/1 145/288/1
f 143/289/11 142/280/11 140/279/11
f 142/280/11 143/289/11 145/290/11
f 144/292/12 142/211/12 146/291/12
f 142/211/12 144/292/12 140/213/12
f 143/294/29 146/281/29 145/293/29
f 146/281/29 143/294/29 144/282/29
f 149/296/10 148/35/10 147/295/10
f 148/35/10 149/296/10 150/37/10
f 148/298/1 151/288/1 147/297/1
f 148/301/5 152/300/5 151/299/5
f 152/300/5 148/301/5 150/302/5
f 150/304/9 149/303/9 152/287/9
f 149/307/11 151/306/11 152/305/11
f 151/306/11 149/307/11 147/308/11
f 155/183/11 154/168/11 153/167/11
f 154/168/11 155/183/11 156/184/11
f 155/296/10 100/36/10 156/295/10
f 100/36/10 155/296/10 94/38/10
f 100/180/1 154/310/1 156/309/1
f 154/310/1 100/180/1 79/147/1
f 91/162/9 155/312/9 153/311/9
f 155/312/9 91/162/9 94/174/9
f 91/24/12 154/313/12 79/22/12
f 154/313/12 91/24/12 153/314/12
f 100/187/13 91/172/13 79/171/13
f 91/172/13 100/187/13 94/188/13
f 159/317/11 158/316/11 157/315/11
f 158/316/11 159/317/11 160/318/11
f 159/321/10 161/320/10 160/319/10
f 161/320/10 159/321/10 162/322/10
f 161/324/1 158/181/1 160/323/1
f 158/181/1 161/324/1 163/325/1
f 164/327/9 159/326/9 157/177/9
f 159/326/9 164/327/9 162/328/9
f 164/330/12 158/291/12 163/329/12
f 158/291/12 164/330/12 157/292/12
f 161/215/13 164/332/13 163/331/13
f 164/332/13 161/215/13 162/216/13
f 167/269/11 166/334/11 165/333/11
f 166/334/11 167/269/11 168/270/11
f 167/296/10 124/36/10 168/295/10
f 124/36/10 167/296/10 134/38/10
f 124/240/1 166/204/1 168/210/1
f 166/204/1 124/240/1 169/324/1
f 170/328/9 167/202/9 165/197/9
f 167/202/9 170/328/9 134/250/9
f 170/24/12 166/313/12 169/22/12
f 166/313/12 170/24/12 165/314/12
f 124/273/13 170/336/13 169/335/13
f 170/336/13 124/273/13 134/274/13
f 153/167/11 172/40/11 171/39/11
f 172/40/11 153/167/11 154/168/11
f 153/296/10 76/35/10 154/295/10
f 76/35/10 153/296/10 90/37/10
f 76/144/1 172/337/1 154/310/1
f 172/337/1 76/144/1 1/1/1
f 17/25/9 153/311/9 171/338/9
f 153/311/9 17/25/9 90/158/9
f 17/44/12 172/313/12 1/43/12
f 172/313/12 17/44/12 171/314/12
f 76/171/13 17/12/13 1/11/13
f 17/12/13 76/171/13 90/172/13
f 165/333/11 156/184/11 155/183/11
f 156/184/11 165/333/11 166/334/11
f 165/296/10 173/35/10 166/295/10
f 173/35/10 165/296/10 174/37/10
f 173/323/1 156/309/1 166/204/1
f 156/309/1 173/323/1 102/182/1
f 96/176/9 165/197/9 155/312/9
f 165/197/9 96/176/9 174/326/9
f 96/44/12 156/313/12 102/43/12
f 156/313/12 96/44/12 155/314/12
f 173/335/13 96/188/13 102/187/13
f 96/188/13 173/335/13 174/336/13
f 140/279/11 118/232/11 110/224/11
f 118/232/11 140/279/11 142/280/11
f 140/284/10 146/319/10 142/283/10
f 146/319/10 140/284/10 144/321/10
f 146/238/1 118/210/1 142/286/1
f 118/210/1 146/238/1 175/237/1
f 176/251/9 140/278/9 110/202/9
f 140/278/9 176/251/9 144/247/9
f 176/292/12 118/211/12 175/291/12
f 118/211/12 176/292/12 110/213/12
f 146/281/13 176/218/13 175/217/13
f 176/218/13 146/281/13 144/282/13
f 179/339/11 178/308/11 177/307/11
f 178/308/11 179/339/11 180/340/11
f 179/342/10 181/35/10 180/341/10
f 181/35/10 179/342/10 182/37/10
f 181/345/1 178/344/1 180/343/1
f 178/344/1 181/345/1 148/298/1
f 150/304/9 179/347/9 177/346/9
f 179/347/9 150/304/9 182/348/9
f 150/44/12 178/349/12 148/43/12
f 178/349/12 150/44/12 177/350/12
f 181/351/13 150/302/13 148/301/13
f 150/302/13 181/351/13 182/352/13
f 183/289/11 141/280/11 139/279/11
f 141/280/11 183/289/11 184/290/11
f 183/221/10 145/283/10 184/219/10
f 145/283/10 183/221/10 143/284/10
f 145/288/1 141/285/1 184/353/1
f 141/285/1 145/288/1 142/286/1
f 140/278/9 183/354/9 139/277/9
f 183/354/9 140/278/9 143/287/9
f 140/213/12 141/212/12 142/211/12
f 141/212/12 140/213/12 139/214/12
f 145/293/13 140/282/13 142/281/13
f 140/282/13 145/293/13 143/294/13
f 177/307/11 186/306/11 185/305/11
f 186/306/11 177/307/11 178/308/11
f 177/342/10 147/295/10 178/341/10
f 147/295/10 177/342/10 149/296/10
f 147/297/1 186/353/1 178/344/1
f 186/353/1 147/297/1 151/288/1
f 152/287/9 177/346/9 185/354/9
f 177/346/9 152/287/9 149/303/9
f 152/314/12 186/349/12 151/313/12
f 186/349/12 152/314/12 185/350/12
f 147/301/13 152/300/13 151/299/13
f 152/300/13 147/301/13 149/302/13

